<svg id="graphic" xmlns="http://www.w3.org/2000/svg" viewBox="0 0 658.99 63.36"><polygon points="0 0 0 57.66 0.38 58.15 0.81 58.85 2.79 59.27 5.8 59.19 8 59.45 9.83 59.92 13.28 59.43 15.04 59.94 17.7 59.9 19.92 60.11 21.74 60.65 24.48 60.41 26.59 60.95 29.09 60.97 31.57 60.72 33.98 60.99 36.38 60.99 38.66 60.38 41.11 60.53 43.47 60.8 45.65 61.26 48.05 61.2 50.61 60.94 52.89 61.13 55.31 61.26 57.91 61.14 60.23 61.38 63.03 61.13 65.59 61.18 67.59 61.66 69.39 62.26 72.78 61.64 74.18 62.58 77.09 62.31 78.96 62.92 81.9 62.58 84.56 62.31 86.82 62.59 89.22 62.68 92.04 62.99 93.21 62.07 95.65 62.02 97.03 61.55 99.43 61.35 103.28 61.49 102.82 60.52 106.55 60.73 107.96 60.27 110.03 59.97 112.42 60.45 115.05 59.78 117.02 60.26 119.31 60.39 122.04 60.19 124.13 60.23 126.34 60.64 128.86 60.4 131 61.01 133.44 60.94 135.75 61.27 138.17 61.33 140.66 61 143.1 60.72 145.49 60.85 147.88 60.84 150.3 61.37 152.66 60.55 155.14 61.43 157.56 61.37 159.94 61.12 162.58 61.18 163.87 60.36 166.18 60.23 168.75 60.22 171.4 60.63 173.55 60.03 175.73 60.54 178.26 60.29 180.57 60.42 182.43 60.84 184.51 61.08 187.64 60.84 189.17 61.47 192.12 61.32 193.86 61.94 196.36 62.05 198.82 62.18 201.12 62.44 204.31 61.88 206.76 61.99 209.19 62.13 211.55 62.25 213.79 62.52 216.16 62.66 218.62 62.96 220.98 62.64 223.12 62.41 226.67 62.65 227.12 61.82 230.11 61.84 231.61 61.24 234.21 61.2 236.68 61.42 238.86 61.68 241.18 61.63 243.33 61.85 245.63 61.96 248.65 61.54 251.16 61.55 252.99 62.07 255.65 61.96 258.14 61.96 260.37 62.16 262.27 62.68 264.62 62.82 267 62.94 269.59 62.64 271.82 63.19 274.29 62.53 276.75 63.09 279.28 63.16 281.55 62.6 284.13 62.81 286.46 62.5 289.17 62.84 291.65 62.79 294.23 62.87 296.38 62.37 298.91 62.4 301.01 61.86 303.96 62.42 306.26 62.14 308.74 62.11 310.69 61.34 313.54 61.85 315.74 61.29 318.27 61.25 320.84 61.14 323.3 61.47 325.77 61.43 328.13 61.2 330.58 61.13 333.18 61.23 335.49 60.94 338.2 61.19 340.37 60.66 342.83 60.52 345.55 60.92 348.01 60.81 350.46 60.42 352.98 60.83 355.54 60.6 357.94 60.57 360.22 60.79 362.78 60.57 365 60.84 367.33 60.97 369.23 61.42 371.21 61.77 373.58 61.83 375.53 62.18 378.45 61.88 380.73 62.02 383.33 61.92 385.35 62.24 387.03 63.01 390.03 62.56 392.19 63.14 394.71 63.31 397.29 63.36 399.81 62.65 402.24 62.48 404.93 63.15 407.31 62.78 409.8 62.75 412.38 62.88 414.71 62.51 417.33 62.75 419.64 62.2 422.24 62.53 424.69 62.8 427.13 62.76 429.29 62.07 432.05 62.8 433.92 62.07 436.14 61.92 438.55 61.93 440.4 61.48 442.82 61.47 445.73 61.77 447.3 61.13 450.25 61.5 452.36 61.26 454.08 60.65 457.41 61.26 458.66 60.5 460.31 60.07 463.49 60.32 465.2 59.9 466.92 59.49 468.96 59.22 472.14 59.47 474.3 59.44 476.43 59.3 478.72 59.24 480.88 58.42 483.38 59.09 485.75 58.93 488.18 58.64 490.57 58.8 492.97 58.82 495.45 58.6 497.67 59.17 500.02 59.3 502.53 59.05 504.83 59.28 507.19 59.39 509.45 59.67 511.86 59.66 514.18 59.81 516.89 59.31 519.43 59.11 521.76 59.27 524.01 59.52 526.41 59.56 528.73 59.72 530.87 60.16 533.5 59.83 536.04 59.68 537.99 60.43 540.74 59.95 543.04 60.16 545.19 60.59 547.97 60.07 549.85 60.9 552.2 61.06 555.07 60.29 557.04 61.2 559.76 60.42 562.11 60.41 564.43 60.7 566.77 60.57 569.09 60.53 571.52 60.59 573.61 60.3 576.19 60.24 579.02 60.71 581.19 60.12 583.72 60.19 586.2 60.21 588.68 60.41 591.15 60.46 593.71 59.74 596.12 60.33 598.7 59.78 601.04 60.56 603.63 60.05 606.01 60.57 608.57 60.21 611.1 60.04 613.53 60.33 615.94 60.85 618.47 60.6 620.94 60.72 623.51 60.15 625.92 60.75 628.4 60.86 630.87 60.5 632.9 60.05 635.21 59.97 637.34 59.75 640.4 59.98 641.87 59.41 644.01 59.17 646.42 59.02 648.42 58.72 650.9 58.57 652.18 58.03 654.74 57.89 656.47 57.5 657.24 56.84 658.99 56.59 658.99 0 0 0" style="fill:#f5f5f5"/><polygon points="0 0 0 45.94 2.62 45.99 4.05 46.35 5.52 46.85 8.05 46.91 10.83 46.94 12.8 47.27 15.57 47.39 16.79 47.88 17.27 48.48 18.71 48.87 21.6 49 23.25 49.37 24.73 49.86 28.18 49.46 30.22 49.79 32.38 49.53 34.47 49.41 37.46 49.45 38.37 48.89 41.6 48.9 43.57 48.65 45.41 48.26 48.05 48.4 50.43 48.4 53.21 47.96 55.49 48.14 57.94 48.35 60.83 48.63 63.28 48.37 65.03 47.91 67.48 47.79 69.8 47.65 71.99 47.36 74.51 47.45 77.22 47.18 79.89 47.2 81.97 47.64 83.27 48.2 87.34 47.89 86.96 48.74 90.06 48.82 90.12 49.46 93.4 49.55 96.2 49.64 97.46 49.98 99.62 49.99 102.78 49.98 102.38 49.18 104.9 49.03 106.42 48.61 109.04 48.5 112.3 48.88 113.91 48.12 116.39 48.7 118.8 48.52 121.35 48.47 123.15 49.02 126.48 48.57 128.23 49.03 130.59 49.18 133.46 49.04 135.78 49.12 137.83 49.5 140.4 49.31 142.69 49.81 145.21 49.73 147.75 49.96 150.49 49.92 152.63 49.5 154.74 49.14 157.32 49.12 159.81 49.02 162.57 49.4 164.85 48.67 167.33 49.44 169.71 49.43 172.26 49.31 174.49 49.54 177.76 49.12 180.08 49.35 182.16 49.68 183.44 50.28 186.82 50.07 188.28 50.64 191.22 50.54 193.63 50.68 195.74 51.04 198.15 51.21 201.14 50.93 203.13 51.42 205.86 51.2 207.88 51.67 210.37 51.7 212.84 51.72 215.32 51.84 217.6 51.21 219.86 51.14 222.09 51.05 224.32 50.94 226.8 50.94 229.18 50.84 231.87 50.91 233.84 50.57 236.16 50.39 238.8 50.86 241.2 50.34 243.44 50.72 246.13 50.46 248.44 50.65 250.52 51 252.62 51.31 255.12 51.33 257.38 51.54 259.81 51.63 262.77 51.24 265.28 51.2 267.39 51.59 269.96 51.42 272.41 51.34 274.76 51.42 277.15 51.77 279.62 51.78 282.12 51.75 284.28 51.37 287.18 51.68 288.71 50.99 291.85 51.3 294.37 51.22 295.73 50.62 298.46 50.63 300.18 50.23 303.22 50.33 305.47 50.13 307.98 50.03 309.3 49.49 311.73 49.38 313.17 48.83 316.52 49.19 318.55 48.92 320.84 48.92 323.4 48.36 325.54 48.92 328.29 48.58 330.69 48.68 333.15 48.71 335.14 49.11 337.47 49.24 339.97 49.22 342.29 49.34 344.44 49.61 346.97 49.53 349.07 49.91 351.72 49.59 354.08 49.59 356.31 50.02 358.74 50.01 361.3 49.74 363.5 50.14 366.04 49.97 368.5 49.98 370.78 50.19 373.42 50.03 375.65 50.27 378.02 50.38 380 50.77 382.08 51.06 384.52 51.1 386.56 51.4 389.53 51.1 391.91 51.13 394.23 50.9 396.6 51 399.57 51.44 401.28 50.83 404.33 51.08 406.87 51 409.21 50.83 410.21 50.09 412.21 49.78 415.67 50.15 417.47 49.74 419.86 49.63 422.38 49.7 424.75 49.41 427.04 49.7 429.77 49.35 431.77 49.77 433.64 50.12 435.88 50.26 439.2 49.92 440.16 50.72 443.29 50.32 445.45 50.34 447.69 50.42 449.67 50.05 452.15 50.02 455.23 50.25 456.68 49.67 459.93 49.91 462 49.62 463.29 49.03 467.09 49.44 468.15 48.76 469.94 48.37 473.24 48.58 475.12 48.27 477.27 47.99 479.66 47.87 482.36 48.27 484.75 48.34 487.08 48.27 489.44 48.25 491.75 47.57 494.18 48.16 496.57 48.02 499 47.77 501.38 47.9 503.78 47.91 506.24 47.72 508.49 48.2 510.84 48.3 513.33 48.08 515.64 48.27 517.99 48.36 520.25 48.59 522.65 48.59 524.94 48.72 527.66 48.28 530.04 48.07 532.35 48.13 534.75 48.25 537.07 48.16 539.47 48.14 542.18 48.34 544.02 47.87 545.96 47.54 549.23 47.93 550.55 47.31 552.95 47.23 555.77 47.31 556.81 46.65 560.4 47.03 562.73 46.9 563.29 46.04 567.04 46.52 567.86 45.69 570.19 45.49 573.18 45.67 575.86 45.65 578.29 45.81 580.35 46.12 582.91 46.2 584.95 46.49 585.96 47.14 589.24 46.96 591.19 47.27 593.29 47.53 595.09 47.9 597.25 48.14 600.83 47.77 602.08 48.41 605.28 48.13 606.44 48.91 609.53 48.62 611.3 49.16 614.12 48.95 616.66 48.88 618.88 49.19 621.13 49.66 623.74 49.46 626.25 49.55 628.61 49.03 631.29 49.49 633.9 49.5 636.12 49.13 638.1 48.7 640.5 48.62 642.67 48.41 645.84 48.59 647.24 48.08 649.35 47.84 651.72 47.65 653.57 47.33 655.96 47.11 656.74 46.59 658.99 46.36 658.99 0 0 0" style="fill:#fff"/></svg>