<svg id="graphic" xmlns="http://www.w3.org/2000/svg" viewBox="0 0 658.99 66.27"><polygon points="0 0.94 0 48.81 2.66 50.34 3.46 51.74 6.16 51.06 9.51 52.67 11.53 51.12 14.22 51.52 16.52 51.06 18.58 48.26 20.81 50.77 22.2 51.93 24.28 53.18 27.08 53.46 30.21 53.22 30.55 57.04 33.23 57.39 35.6 58.14 36.82 61.33 39.86 60.42 42.3 60.56 44.66 59.71 47.14 62.91 49.28 61.34 51.69 61.78 53.59 58.11 56.5 61.39 58.85 60.76 61.21 59.7 63.66 59.92 66.09 60.9 68.55 58.46 70.98 59.34 73.37 60.17 75.77 60.67 78.43 58.97 80.72 60.37 82.82 62.53 85.61 60.92 87.71 62.75 90.53 61.48 92.36 64.13 95.65 61.61 97.25 64.75 100.03 66.27 102.66 63.14 105.11 62.94 108.22 62.9 109.16 59.94 111.31 58.59 113.09 56.59 115.46 55.38 118.42 55.99 120.92 56.17 123.33 53.33 125.71 56.73 128.41 56.67 131.15 54.76 133.79 57.44 136.48 56.65 138.67 54.41 140.7 53.4 142 51.03 145.74 52.34 147.93 51.36 149.69 49.7 150.35 45.97 152.63 45.05 156.26 47.02 158.08 45.35 159.36 42.08 162.53 43.89 164.35 43.15 166.45 44.14 168.86 43.83 171.5 41.91 173.6 43.73 175.98 43.6 178.13 45.05 180.44 45.31 183.07 43.51 184.96 46.71 187.31 46.74 189.72 46.4 192.31 44.3 194.51 45.57 196.97 47.66 199.34 47.41 201.58 44.41 203.94 44.12 206.33 44.35 208.75 45.05 210.99 43.25 213.56 45.61 216.01 45.98 218.36 45.21 221.09 42.43 222.5 46.22 224.93 46.68 226.89 48.1 229.68 48.38 231.08 50.61 232.41 52.83 235.13 53.4 236.7 55.91 239.7 55.78 242.05 55.22 243.46 51.56 246.31 52.67 248.51 50.87 251.08 49.62 253.89 50.18 255.68 52.77 257.81 53.59 260.12 54.25 261.82 51.96 264.63 52.99 266.75 52.47 268.98 51.5 270.45 53.46 272.42 55.71 275.46 55.75 278.23 57.13 280.78 54.91 283.5 55.04 286.12 54.55 288.82 54.26 290.39 50.76 293.22 53.3 295.62 50.13 298.06 52.54 300.59 52.03 302.9 53.96 305.49 53.31 308.03 53.14 310.53 54.34 312.95 51.6 315.42 52.46 317.75 54.53 320.16 51.84 322.58 54.25 324.75 51.22 327.57 53.75 330.07 53.25 331.52 50.12 334.35 50.5 336.01 48.98 338.59 46.98 340.69 48.66 342.84 51.32 345.39 48.98 347.85 51.13 350.26 50.11 352.56 48.75 355.22 49.99 357.58 49.05 359.84 46.72 362.5 48.42 364.75 45.91 367.26 46.01 370.12 47.92 372.98 48.44 374.98 45.6 378.14 45.66 379.8 43.93 382.44 43.22 383.34 39.79 385.67 38.63 388.74 39.33 390.33 35.96 393.61 38.9 395.74 36.95 398.09 37.69 400.25 38.75 403.24 37.71 405.72 38.41 406.58 41.89 410.01 40.98 410.52 44.73 412.42 46.4 415.09 46.82 417.42 48.02 420.16 48.48 422.69 48.71 424.24 45.32 426.88 46.04 428.72 44.33 431.21 43.54 434.03 43.55 435.24 46.49 437.6 47.09 439.34 48.69 441.37 49.82 442.81 52.37 445.58 51.79 447.26 54.03 449.75 53.99 452.46 53.2 454.92 53.1 456.95 54.37 459.44 54.39 461.74 55.82 464.26 56.33 466.76 54.33 469.37 56.04 471.96 56.42 474.26 53.98 476.9 54.62 479.6 56.14 482.02 55.38 484.29 56.66 486.63 57.45 489.04 56.56 491.4 56.8 493.74 57.9 496.1 57.92 498.47 57.74 500.83 56.67 503.16 55.82 505.51 55.77 507.79 54.67 510.26 56.16 512.89 56.73 514.92 56.07 518.11 55.16 520.45 56.61 522.12 58.84 524.33 60.22 526.72 62.14 529.42 62.4 531.19 59.25 534.01 60.46 536.26 59.5 537.94 56.7 540.39 56.45 543.04 56.9 545.47 56.6 547.73 55.74 550.06 55.82 551.61 57.45 555.05 55.52 556.76 57.36 558.52 59.24 561.22 58.35 563.25 60.05 565.5 59.11 567.46 58.24 569.57 56.66 572.34 56.98 575.22 58.35 576.68 54.16 579.03 54.05 581.33 52.58 583.84 52.66 586.68 55.44 588.81 51.77 591.85 52.97 594.26 51.55 596.24 49.24 599.31 49.63 601.11 52.14 604.17 50.32 605.73 52.68 607.25 55.12 610.5 52.79 611.64 56.95 613.43 53.2 617.11 53.45 618.22 50.94 619.88 48.56 622.56 47.9 625.01 46.76 627.96 48.32 630.37 47.24 632.35 45.35 634.66 44.6 636.19 42.3 638.21 41.57 639.38 39.36 642.81 39.04 645.33 39.54 647.19 39.95 649.56 41.21 651.99 40.83 654.38 39.59 656.86 40.26 658.99 42.33 658.99 3.9 0 0.94" style="fill:#f5f5f5"/><polygon points="0 0 0 43.87 2.66 43.99 4.74 42.74 6.84 41.21 9.56 41.82 11.69 40.47 13.81 38.83 16.19 38.14 18.66 39.96 21.07 38.71 24.5 37.9 25.04 41.51 27.62 41.91 29.68 43.85 32.23 44.44 34.88 42.15 37.34 44.55 39.84 45.01 42.27 44.69 44.66 43.23 47.63 42.08 48.97 45.76 51.75 45.61 54.32 46.04 55.85 49.14 58.92 48.25 61.45 48.72 64.19 48.58 65.52 52.58 68.38 52.12 71.3 53.33 72.92 49.6 76.17 52.45 78.38 51.22 80.2 49.36 82.43 48.41 84.95 47.95 85.71 44.67 88.23 44.71 90.5 45.28 92.67 45.83 95.4 44.41 97.37 46.12 99.97 48.52 102.97 46.32 106.29 46.27 107.19 43.24 110.45 43.42 110.56 39.23 114.06 39.94 116.58 39.61 117.93 35.9 120.73 36.21 123.32 37.9 125.91 36.2 128.52 36.56 131.17 35.98 133.76 36.03 136.43 37.53 139.5 37.79 139.59 34.03 143.51 35.02 145.15 33.4 145.85 30.38 149.25 31.29 150.84 29.5 151.9 26.57 154.21 25.89 155.96 23.84 159.23 26.02 161.5 25.72 163.79 24.55 165.42 21.06 167.9 20.65 171.2 23.23 173.41 21.82 175.13 18.68 178.26 20.67 180.63 19.86 183.21 19.84 185.44 18.55 187.25 15.69 190.05 16.47 192.32 15.35 193.79 17.5 195.9 18.57 199 17.79 199.77 21.44 202.03 22.23 204.48 22.65 207.63 21.39 209.24 23.55 210.69 26.45 213.09 27.07 216.04 24.79 217.99 24.7 220.84 25.22 222.98 26.85 225.98 26.52 226.78 30 228.42 31.85 230.62 32.94 234.42 32.14 234.26 36.12 236.74 37.36 239.31 36.54 241.16 34.41 243.82 34.54 246.41 34.8 248.57 33.06 251.06 33.81 253.12 34.99 254.52 35.96 258.36 35.02 259.45 37.88 262.31 37.94 265 38.22 267.08 39.68 268.37 42.4 270.55 43.62 272.61 45.02 274.36 42.86 277.29 43.34 279.22 41.91 280.34 39.58 282.87 38.91 285.2 38.17 286.52 36.15 288.91 36.23 290.67 33.99 292.92 35.12 295.01 36.28 296.83 37.96 300.48 36.7 301.07 40.47 304.81 39.12 305.9 42.34 308.56 42.6 311.24 44.54 313.46 43.45 315.78 42.98 318.17 44.01 320.42 41.25 322.84 42.02 325.51 43.72 327.37 40.6 329.75 42.53 332.63 40.34 334.52 43.78 337.1 44.44 340.08 42.44 342.5 44.29 345.18 44 347.45 41.34 349.76 42.05 353.07 42.88 353.41 39.45 356.54 39.77 357.99 38 359.72 36.22 362.31 37.2 364.42 36.22 366.49 33.82 369.25 35.17 370.65 32.23 372.75 31.5 375.98 31.91 378.47 31.12 379.17 28.18 382.09 28.56 383.89 26.75 386.25 26.04 387.31 22.73 389.65 21.81 392.58 22.79 394.39 19.58 397.22 22.89 399.62 21.41 401.82 22.63 403.85 24.04 406.96 23.33 409.38 24.14 410.21 27.64 413.66 26.73 414.26 30.48 416.16 32.14 419.09 32.47 421.7 33.23 424.36 33.27 426.96 33.45 429.14 30.27 431.71 31.81 434.39 31.32 437.05 32.11 439.36 32.73 440.84 35.53 443.47 35.56 445.76 36.73 448.17 37.5 449.99 39.91 452.84 39.35 454.34 41.8 456.83 42.34 459.63 42.14 461.95 42.23 463.85 43.45 466.11 43.36 468.17 44.76 470.41 45.34 472.86 43.51 474.99 45.66 477.41 45.89 478.71 43 481.18 42.83 484.09 43.31 485.77 41.46 488.29 41.19 490.64 40.64 492.24 38.67 494.39 37.78 496.9 37.78 498.94 36.98 500.58 36.73 503.04 36.06 505.62 35.88 507.99 36.61 510.66 36.47 512.44 38.88 514.43 40.63 517 40.81 520.01 39.74 522.33 40.56 524.38 42.15 526.72 42.64 528.93 44.2 531.07 45.44 534.23 43.66 535.95 46.27 538.38 46.82 541.43 45.53 543.57 46.7 545.67 48.31 548.07 48.34 550.3 47.5 552.7 47.29 555.31 47.64 556.49 43.84 559.01 43.92 561.59 44.06 563.13 41.64 565.81 41.94 567.55 40.16 569.6 39.02 571.77 37.77 574.24 38.58 577.15 39.89 579.33 36.91 581.28 38.38 583.67 38.52 585.5 39.74 587.61 43.16 588.67 39.1 591.74 38.53 592.85 36.03 593.52 32.95 596.49 31.6 599.24 33.09 601.75 30.49 603.89 32.51 605.78 34.7 608.87 32.09 610.2 36.23 614.15 34.41 614.26 38.27 617.23 38.04 619.76 37.01 622.28 37.28 624.74 36.55 627.79 37.58 629.47 35.38 630.3 32.65 632.4 31.07 633.82 28.47 636.65 27.83 639.01 27.04 641.35 26.24 643.67 25.41 646.05 25.23 648.54 26.07 650.72 25.21 652.14 23.37 654.83 22.91 657.47 26.99 658.99 28.77 658.99 0 0 0" style="fill:#fff"/></svg>